<?xml version="1.0" standalone="no"?><!DOCTYPE svg PUBLIC "-//W3C//DTD SVG 1.1//EN" "http://www.w3.org/Graphics/SVG/1.1/DTD/svg11.dtd"><svg t="1649224903657" class="icon" viewBox="0 0 1024 1024" version="1.1" xmlns="http://www.w3.org/2000/svg" p-id="2434" xmlns:xlink="http://www.w3.org/1999/xlink" width="200" height="200"><defs><style type="text/css">@font-face { font-family: feedback-iconfont; src: url("//at.alicdn.com/t/font_1031158_u69w8yhxdu.woff2?t=1630033759944") format("woff2"), url("//at.alicdn.com/t/font_1031158_u69w8yhxdu.woff?t=1630033759944") format("woff"), url("//at.alicdn.com/t/font_1031158_u69w8yhxdu.ttf?t=1630033759944") format("truetype"); }
</style></defs><path d="M664.7 393l74.3-74.9 23.6 23.5-74.3 74.9-23.6-23.5z" p-id="2435" fill="#2c2c2c"></path><path d="M783.1 363.8c-35.9 0-64.9-29.1-64.9-64.9s29.1-64.9 64.9-64.9 64.9 29.1 64.9 64.9-29.1 64.9-64.9 64.9z m0-96.6c-17.4 0-31.6 14.2-31.6 31.6 0 17.4 14.2 31.6 31.6 31.6 17.4 0 31.6-14.2 31.6-31.6 0.1-17.4-14.1-31.6-31.6-31.6zM228.2 712.5l105.4-105.1 23.5 23.6-105.4 105.1-23.5-23.6z" p-id="2436" fill="#2c2c2c"></path><path d="M207.3 819.6h-1c-35.9-0.6-64.5-30.1-64-65.9 0.6-35.5 29.5-64 64.9-64h1c35.9 0.6 64.5 30.1 63.9 65.9-0.5 35.4-29.4 64-64.8 64zM159 753.9l16.7 0.2c-0.2 17.4 13.8 31.9 31.2 32.1 17.4 0.2 31.9-13.8 32.1-31.2 0.2-17.4-13.8-31.9-31.2-32.1-17.4-0.2-31.9 13.8-32.1 31.2-0.1 0-16.7-0.2-16.7-0.2zM636.4 646.3l23.5-23.5 95.8 95.8-23.5 23.5-95.8-95.8z" p-id="2437" fill="#2c2c2c"></path><path d="M772.8 824.2c-16.4 0-32-6.1-44.1-17.3-12.8-11.8-20.1-27.9-20.8-45.2-0.7-17.3 5.4-33.9 17.2-46.6 24.3-26.3 65.5-27.9 91.8-3.6 26.3 24.3 27.9 65.5 3.6 91.8-11.8 12.8-27.9 20.1-45.2 20.8-0.8 0.1-1.7 0.1-2.5 0.1z m0.1-96.5c-8.5 0-17 3.4-23.2 10.1-11.9 12.8-11.1 32.9 1.7 44.7 6.2 5.8 14.2 8.8 22.8 8.4 8.4-0.3 16.3-3.9 22-10.1 5.8-6.2 8.8-14.3 8.4-22.8-0.3-8.4-3.9-16.2-10.1-22-6.3-5.6-13.9-8.3-21.6-8.3zM240.4 320l23.4-23.7 96.3 95.3-23.4 23.7-96.3-95.3z" p-id="2438" fill="#2c2c2c"></path><path d="M223.1 344.3c-15.7 0-31.4-5.7-43.8-17.1-12.8-11.8-20.2-27.8-21-45.1s5.3-34 17-46.7c24.2-26.4 65.4-28.2 91.8-4 26.4 24.2 28.2 65.4 4 91.8-12.9 14-30.4 21.1-48 21.1z m0-96.6c-8.5 0-17.1 3.4-23.3 10.2-5.7 6.2-8.7 14.3-8.3 22.8 0.3 8.4 4 16.2 10.2 22 12.9 11.8 33 10.9 44.7-1.9 11.8-12.9 10.9-33-1.9-44.7-6-5.6-13.7-8.4-21.4-8.4zM703.9 506.2l68.7-0.6 0.3 33.3-68.7 0.6-0.3-33.3z" p-id="2439" fill="#2c2c2c"></path><path d="M822 577.8c-0.9 0-1.7 0-2.6-0.1-15-0.7-28.9-7.1-39-18.2-20.9-22.9-19.3-58.5 3.6-79.4s58.5-19.3 79.4 3.6c20.9 22.9 19.3 58.5-3.6 79.4-10.4 9.5-23.7 14.7-37.8 14.7z m0-79c-5.6 0-11.1 2-15.4 6-9.3 8.5-10 23-1.4 32.3 4.1 4.6 9.8 7.1 15.9 7.4 6.1 0.2 12-1.9 16.4-6 9.3-8.5 10-23 1.4-32.3-4.6-5-10.8-7.4-16.9-7.4zM251.6 504.9l73.6-1.5 0.7 33.3-73.6 1.5-0.7-33.3z" p-id="2440" fill="#2c2c2c"></path><path d="M215.7 573.9c-1.6 0-3.1-0.1-4.7-0.2-15-1.2-28.5-8.2-38.3-19.6-20.1-23.6-17.2-59.2 6.4-79.1 23.6-20.1 59.2-17.2 79.1 6.4 20.1 23.6 17.2 59.2-6.4 79.1-10.1 8.8-22.9 13.4-36.1 13.4z m-15-73.6c-9.7 8.2-10.8 22.6-2.7 32.2 4 4.7 9.4 7.5 15.5 8 6.1 0.6 12-1.4 16.7-5.3 9.7-8.2 10.8-22.6 2.7-32.2-8.1-9.7-22.5-10.9-32.2-2.7zM496.1 667.5l33.3-0.4 1.2 110.9-33.3 0.4-1.2-110.9z" p-id="2441" fill="#2c2c2c"></path><path d="M514.3 867.9c-29.7 0-54.6-23.4-56.1-53.4-1.6-31 22.4-57.4 53.4-58.8 31-1.6 57.4 22.4 58.8 53.4 1.4 31-22.4 57.4-53.4 58.8h-2.7z m1.2-33.3l0.8 16.7-0.8-16.7c6.1-0.3 11.8-3 15.9-7.4 4.1-4.6 6.2-10.4 5.9-16.4-0.7-12.5-11.3-22.3-24-21.8-12.5 0.7-22.3 11.3-21.8 24 0.6 12.2 10.8 21.8 22.9 21.8 0.3-0.2 0.7-0.2 1.1-0.2zM497.2 298.1l33.3-0.5 1.7 110.9-33.2 0.5-1.8-110.9z" p-id="2442" fill="#2c2c2c"></path><path d="M513.4 320.6c-29.6 0-54.5-23.2-56.1-53.2-1.7-31 22.2-57.4 53.1-59.1 15-0.8 29.4 4.2 40.5 14.3 11.2 10 17.8 23.8 18.5 38.7 0.8 15-4.2 29.4-14.3 40.5-10 11.2-23.8 17.8-38.7 18.5-1 0.3-2 0.3-3 0.3z m0.1-79h-1.2c-12.5 0.7-22.3 11.4-21.6 24.1 0.7 12.5 11.4 22.3 24.1 21.6 6.1-0.3 11.7-3 15.8-7.5 4.1-4.6 6.1-10.4 5.8-16.5-0.3-6.1-3-11.7-7.5-15.8-4.4-3.9-9.7-5.9-15.4-5.9z" p-id="2443" fill="#2c2c2c"></path><path d="M712.7 645.9H313.9V377.8h398.6v268.1h0.2z m-365.5-33.3h332V411.1h-332v201.5z" fill="#2c2c2c" p-id="2444"></path><path d="M496.6 629.2h33.3v68.3h-33.3v-68.3z" fill="#2c2c2c" p-id="2445"></path><path d="M371.7 690.8H656v33.3H371.7v-33.3z" fill="#2c2c2c" p-id="2446"></path></svg>