<?xml version="1.0" standalone="no"?><!DOCTYPE svg PUBLIC "-//W3C//DTD SVG 1.1//EN" "http://www.w3.org/Graphics/SVG/1.1/DTD/svg11.dtd"><svg t="1641892512987" class="icon" viewBox="0 0 1024 1024" version="1.1" xmlns="http://www.w3.org/2000/svg" p-id="2266" xmlns:xlink="http://www.w3.org/1999/xlink" width="200" height="200"><defs><style type="text/css"></style></defs><path d="M142.00437 47.357492s-303.673264 552.138086 153.37834 929.437742c0 0 582.819533-15.342787 653.370763-653.379018 0 0-297.535324-88.94854-374.224494-269.929039-0.012383 0.004128-242.34752 110.429268-432.524609-6.129685z" fill="#F0F0FF" p-id="2267"></path><path d="M169.032772 124.021896c179.205572 88.077589 391.878812-16.151823 391.878812-16.151823 72.268367 180.97637 387.837761 259.758302 387.837761 259.758302-1.510751 14.488346-3.35172 28.543281-5.345416 42.395956a992.497134 992.497134 0 0 0 13.382114-86.603987s-297.535324-88.94854-374.224494-269.929039c-0.008255 0.004128-242.343392 110.429268-432.520481-6.133813 0 0-259.485871 471.837148 62.361805 841.215683-253.125033-355.703351-43.370101-764.551278-43.370101-764.551279z" fill="#FFFFFF" p-id="2268"></path><path d="M792.642572 622.726465m-21.959545 0a21.959545 21.959545 0 1 0 43.91909 0 21.959545 21.959545 0 1 0-43.91909 0Z" fill="#6E6E96" p-id="2269"></path><path d="M169.032772 145.362281m-21.340385 0a21.340385 21.340385 0 1 0 42.68077 0 21.340385 21.340385 0 1 0-42.68077 0Z" fill="#6E6E96" p-id="2270"></path><path d="M99.216279 405.099944m-21.340385 0a21.340385 21.340385 0 1 0 42.68077 0 21.340385 21.340385 0 1 0-42.68077 0Z" fill="#6E6E96" p-id="2271"></path><path d="M136.19252 679.519957m-21.332129 0a21.332129 21.332129 0 1 0 42.664259 0 21.332129 21.332129 0 1 0-42.664259 0Z" fill="#6E6E96" p-id="2272"></path><path d="M316.248406 914.582027m-21.336257 0a21.336257 21.336257 0 1 0 42.672514 0 21.336257 21.336257 0 1 0-42.672514 0Z" fill="#6E6E96" p-id="2273"></path><path d="M873.220068 361.882569m-21.336257 0a21.336257 21.336257 0 1 0 42.672514 0 21.336257 21.336257 0 1 0-42.672514 0Z" fill="#6E6E96" p-id="2274"></path><path d="M543.438886 124.104451m-21.332129 0a21.332129 21.332129 0 1 0 42.664259 0 21.332129 21.332129 0 1 0-42.664259 0Z" fill="#6E6E96" p-id="2275"></path><path d="M213.930135 195.543144S1.409621 580.020929 337.085207 857.123969c0 0 380.436734-44.84783 479.84908-465.831295 0 0-232.535896-79.359814-288.858827-212.268722 0 0-150.893445 78.542523-314.145325 16.519192z" fill="#FFA8BA" p-id="2276"></path><path d="M816.926031 377.279017S584.394263 311.93286 528.071332 179.02808c0 0-175.80432 299.277227-190.99438 678.095889 0.004128-0.008255 396.208805-43.089415 479.849079-479.844952z" fill="#DB919F" p-id="2277"></path><path d="M603.757463 813.076919m-21.959545 0a21.959545 21.959545 0 1 0 43.91909 0 21.959545 21.959545 0 1 0-43.91909 0Z" fill="#6E6E96" p-id="2278"></path><path d="M295.38271 993.310298a16.510936 16.510936 0 0 1-10.509211-3.776877C178.229363 901.49711 103.575166 796.594877 62.974774 677.736776c-32.452245-95.003926-43.254525-198.903119-32.101387-308.808165C49.778408 182.524271 124.37069 45.15741 127.536662 39.399221a16.510936 16.510936 0 0 1 23.094672-6.121429c55.224953 33.847419 120.831158 51.010537 194.998282 51.010537 119.155298 0 217.940228-43.968623 222.088602-45.838487a16.506808 16.506808 0 0 1 22.013205 8.59807c72.821484 171.837567 360.854763 259.684003 363.752433 260.550827a16.510936 16.510936 0 0 1 11.681487 17.63368c-16.403615 148.350761-61.750901 275.860592-134.787027 378.992027-58.597312 82.740428-134.939753 149.915172-226.909794 199.66675-156.201711 84.498843-301.539226 89.249865-307.648272 89.410846-0.148598 0.008255-0.293069 0.008255-0.43754 0.008256zM148.856408 70.394376c-19.503543 40.340345-70.687445 157.543224-85.241835 302.967421-10.505083 104.976532-0.136215 204.000871 30.82179 294.323947 38.012303 110.89983 107.490322 209.214199 206.539427 292.288974 28.778562-1.882247 155.958174-14.017785 287.958981-85.757802 87.198381-47.390514 159.528664-111.234176 214.98477-189.768444 67.282065-95.276357 109.929812-212.788816 126.853522-349.433324-58.279477-19.375583-286.724788-103.833149-364.598618-260.220608-33.962996 13.200493-120.641282 42.519788-220.544829 42.519789-73.59337-0.004128-139.694902-15.776199-196.773208-46.919953z" fill="#6E6E96" p-id="2279"></path><path d="M582.561549 53.487177s-2.765582 1.254831-7.879844 3.347593c15.04559 27.474198 35.246721 52.488266 58.304243 75.071098-20.906973-23.883069-38.387926-50.015753-50.424399-78.418691z m327.931957 253.735938C836.371786 898.05458 302.701183 912.493393 302.701183 912.493393-67.808351 600.411935 97.243222 162.740041 147.077355 52.995977c-30.231524 58.923403-273.75132 568.76047 156.337926 923.803384 0 0 582.811277-15.342787 653.370762-653.379017 0 0-18.013431-5.390821-46.292537-16.197229z" fill="#6E6E96" opacity=".15" p-id="2280"></path><path d="M340.725868 849.838519S85.710333 582.538847 242.440394 248.980788c0 0 200.781238 44.203904 289.2716-77.242286 0 0-156.977725 80.759116-319.573296 27.193511 0 0-191.089319 383.697643 128.58717 650.906506z" fill="#FFCFD9" p-id="2281"></path><path d="M340.725868 866.349455c-3.818154 0-7.537242-1.320875-10.50921-3.776877-178.920759-147.698579-203.922444-325.608043-193.396722-448.84567 11.343013-132.735543 64.06656-229.407074 66.303791-233.45638a16.510936 16.510936 0 0 1 20.312579-7.446432c39.778973 15.111634 82.389571 22.776836 126.659519 22.776836 98.879868 0 173.25338-38.115496 173.992244-38.503503a16.477914 16.477914 0 0 1 13.204621-0.891591 16.490297 16.490297 0 0 1 9.61762 9.093399c52.839123 124.669951 276.7398 202.312627 278.997671 203.084513a16.515064 16.515064 0 0 1 10.736236 19.420989c-52.690525 223.104024-183.981361 341.309943-284.850797 401.186852-109.294141 64.875596-205.111231 76.771725-209.1399 77.246415a16.717323 16.717323 0 0 1-1.927652 0.111449zM225.784987 208.718871c-14.112723 29.690791-47.873459 109.541805-56.157821 208.991301-13.745354 164.940124 45.462862 304.424512 175.977684 414.68867 23.329953-3.933731 103.234628-20.411645 190.544458-72.524286 134.138972-80.061529 223.194834-202.960682 264.856053-365.424165-50.486315-19.160941-218.175509-89.691533-277.173211-200.917454-28.419449 12.069494-93.17534 35.085739-173.732198 35.085739-43.126565 0-84.870339-6.686929-124.314965-19.899805z" fill="#6E6E96" p-id="2282"></path><path d="M246.65481 501.556833s-10.761003 97.649804 99.494901 173.699175c110.264159 76.041116 193.594853 234.352099 235.524375 234.352099 41.913011 0 137.251284-95.874878 137.251284-95.874878L246.65481 501.556833z" fill="#6E6E96" opacity=".15" p-id="2283"></path><path d="M815.345109 949.114649l34.33862-34.359258-74.848201-74.856456-34.565645 34.553261z" opacity=".61" p-id="2284"></path><path d="M745.148864 754.157644l-36.311676 36.311676c-23.821153 23.821153-65.573183 27.073807-92.779077 7.211151L359.907448 588.082393c-27.210023-19.858528-49.702045-63.657914-49.986859-97.344351l1.519007-118.395795a60.161723 60.161723 0 0 1 21.893501-46.994252l411.815767 428.809649z" p-id="2285"></path><path d="M333.333097 325.343868c-19.028854 10.604149-21.893501 46.990124-21.893501 46.990124l377.402849 325.141608-355.509348-372.131732z" p-id="2286"></path><path d="M508.315997 508.507937c143.583228 67.843436 245.067696 35.056845 245.067697 35.056845l-74.427172-103.998259c-143.207604 59.691162-259.217569-24.95628-259.217569-24.956279l88.577044 93.897693z" opacity=".68" p-id="2287"></path><path d="M753.383694 543.573038l48.744411 82.385443-88.296359 88.085844-205.515749-205.528133c129.107265 53.359218 245.067696 35.056845 245.067697 35.056846zM628.767404 804.875112s-149.66338-119.270874-232.585429-187.118439c-82.917921-67.851692-84.738252-111.622183-84.738252-111.622183V372.338119l38.883255 33.50069s-26.124429 78.253582-5.861383 133.259765c20.267174 55.014439 306.892897 243.189577 306.892897 243.189577l-22.591088 22.586961z" opacity=".68" p-id="2288"></path><path d="M697.168084 783.67507a44.059433 41.124614 90 1 0 82.249228 0 44.059433 41.124614 90 1 0-82.249228 0Z" p-id="2289"></path><path d="M720.262756 774.833464a25.00994 21.864607 90 1 0 43.729214 0 25.00994 21.864607 90 1 0-43.729214 0Z" p-id="2290"></path><path d="M801.083788 714.92766l-115.92741 111.415796a14.595667 14.595667 0 0 0 3.525085 23.577617c56.475657 28.493748 86.447134 57.354864 91.648079 88.201421a14.579157 14.579157 0 0 0 9.956094 11.4751 14.59154 14.59154 0 0 0 14.764905-3.574617l113.747966-113.756222a14.546135 14.546135 0 0 0 4.049307-12.866147 14.587412 14.587412 0 0 0-8.222446-10.707342c-28.960182-13.44403-50.58538-40.790268-71.508864-67.232532-6.790122-8.593942-13.815526-17.456187-20.902845-25.608462a14.661711 14.661711 0 0 0-10.372996-4.99043 14.587412 14.587412 0 0 0-10.756875 4.065818z" fill="#DADAF0" p-id="2291"></path><path d="M850.633107 877.300333l55.90603-55.914285-74.860584-74.856457-56.112417 56.112417z" fill="#FFFFFF" opacity=".61" p-id="2292"></path><path d="M258.798604 490.866002c0.330219 38.462226 24.931513 86.34394 55.988584 109.013455l-0.643927-0.495328 256.468498 209.866381 0.321963 0.239408c32.848507 23.969751 82.971582 20.073171 111.729505-8.684752l85.877506-85.885762c28.737284-28.741412 32.745314-78.889253 8.940672-111.746015l-178.19015-248.980788c-22.562194-31.172647-70.38612-55.815219-108.873112-56.095906l-154.657939-1.155765a74.328106 74.328106 0 0 0-53.544965 21.9678 74.34049 74.34049 0 0 0-21.897629 53.363346l-1.519006 118.593926z" fill="#FFFFFF" p-id="2293"></path><path d="M621.102202 841.71101c-21.934779 0-43.213247-6.707568-59.901676-18.884383l-1.048445-0.796653-255.894743-209.395819c-34.982546-26.025363-61.602303-78.216432-61.973798-121.62781l-0.033022-4.00803 0.086682-0.169237a325044.11161 325044.11161 0 0 0 1.473601-114.850071c-0.144471-24.213288 9.34519-47.345109 26.72295-64.739381a90.78951 90.78951 0 0 1 64.656826-26.81376h0.689332l154.657938 1.155766c43.890196 0.321963 96.394973 27.375132 122.123139 62.927305l178.24381 249.050959c28.312128 39.081386 23.540467 98.793186-10.690831 133.03274l-85.881634 85.885762c-18.574803 18.578931-45.268859 29.232612-73.230129 29.232612z m-40.402261-45.537161c11.289353 8.139891 25.53829 12.51529 40.402261 12.515289 19.27239 0 37.455058-7.132724 49.887793-19.561331l85.877506-85.881634c22.855263-22.863519 26.173961-64.252308 7.244174-90.384992l-178.247939-249.055088c-19.433372-26.85091-62.328784-48.950798-95.565298-49.194334l-155.107861-1.155765a57.953386 57.953386 0 0 0-41.289723 17.125968 57.961641 57.961641 0 0 0-17.06818 41.599304l-0.429285 33.5172c-0.705843 55.12176-0.978273 76.185587-1.485984 85.035448h0.392135c0.280686 33.021872 22.215464 75.892518 48.888881 95.581809l0.008256-0.012383 0.643926 0.495328-0.466434 0.61916 0.478818-0.590266 255.836954 209.346287z" fill="#6E6E96" p-id="2294"></path><path d="M708.643185 754.157644l-36.311676 36.311676c-23.821153 23.821153-65.581438 27.073807-92.787333 7.211151l-256.15479-209.598078c-27.205895-19.858528-49.697918-63.657914-49.990987-97.344351l1.523134-118.395795a60.14934 60.14934 0 0 1 21.893501-46.994252l411.828151 428.809649z" fill="#D6D6ED" p-id="2295"></path><path d="M296.819162 325.343868c-19.028854 10.604149-21.893501 46.990124-21.893502 46.990124l377.40285 325.141608-355.509348-372.131732z" fill="#FFFFFF" p-id="2296"></path><path d="M471.797935 508.507937c143.587356 67.843436 245.08008 35.056845 245.080079 35.056845l-74.4313-103.998259c-143.219987 59.691162-259.217569-24.95628-259.217568-24.956279l88.568789 93.897693z" fill="#D3D3F2" opacity=".36" p-id="2297"></path><path d="M716.878014 543.573038l56.669661 78.104983-96.229864 92.358048-205.519876-205.528132c129.11552 53.367473 245.08008 35.0651 245.080079 35.065101z" fill="#CECEED" opacity=".68" p-id="2298"></path><path d="M592.265852 804.875112s-149.667508-119.270874-232.593684-187.118439c-82.922049-67.851692-84.738252-111.622183-84.738252-111.622183V372.338119l38.883254 33.50069s3.719088 48.410065 23.986263 103.416248c20.267174 55.018567 277.04938 273.033094 277.049379 273.033094l-22.58696 22.586961z" fill="#FFFFFF" opacity=".68" p-id="2299"></path><path d="M794.739461 966.806117c-3.219633 0-6.410371-0.495328-9.477277-1.473601a30.966261 30.966261 0 0 1-21.220681-24.477462c-4.206161-24.952152-32.064238-50.589508-82.802344-76.189715a31.209797 31.209797 0 0 1-16.7586-23.173099 31.172647 31.172647 0 0 1 9.246124-27.069679l115.906771-111.395158a30.937366 30.937366 0 0 1 22.950201-8.655859 31.329501 31.329501 0 0 1 22.037972 10.600021c7.652819 8.800329 15.30151 18.479865 21.443578 26.256516 19.74708 24.95628 40.12983 50.709212 65.507139 62.493894a31.143753 31.143753 0 0 1 17.530487 22.818113 31.065326 31.065326 0 0 1-8.659986 27.428793l-113.727328 113.731455a30.82179 30.82179 0 0 1-21.976056 9.105781z m-96.221608-130.403373c57.941002 29.633003 89.869025 60.89646 97.406268 95.404317l109.298269-109.306525c-31.193286-15.367554-53.454156-43.502189-75.005055-70.73285-5.609591-7.107958-12.453374-15.763816-19.136175-23.544595l-112.563307 108.179653z" fill="#6E6E96" p-id="2300"></path><path d="M857.910302 626.957392c21.20417 20.952378 21.220681 55.637727 0.041278 77.07305l-176.960085 178.978547c-21.183531 21.414684-55.852369 21.794436-77.056539 0.83793-21.20417-20.964761-21.220681-55.637727-0.041277-77.060666l176.960085-178.990931c21.183531-21.414684 55.860624-21.798563 77.056538-0.83793z" fill="#DADAF0" p-id="2301"></path><path d="M821.004233 661.436355c21.195914 20.952378 21.216553 55.637727 0.041277 77.060666l-64.582527 66.605116c-21.187659 21.431195-55.860624 21.806819-77.064794 0.850313-21.195914-20.960633-21.224808-55.637727-0.033022-77.064794l64.582527-66.613371c21.187659-21.418812 55.852369-21.798563 77.056539-0.83793z" fill="#F0F0F0" p-id="2302"></path><path d="M641.868832 915.83273c-18.739912 0-36.336443-7.190513-49.541064-20.242408-27.734245-27.420537-27.808544-72.462371-0.177493-100.411257l176.960085-178.990931a71.054813 71.054813 0 0 1 50.870195-21.216552c18.74404 0 36.336443 7.190513 49.536935 20.246535 27.730117 27.404026 27.808544 72.449988 0.177493 100.415385l-176.964213 178.982675a71.009408 71.009408 0 0 1-50.861938 21.216553z m178.11585-287.839276a38.231072 38.231072 0 0 0-27.391643 11.417312l-176.955957 178.986803c-14.835076 15.000185-14.876353 39.097897-0.09081 53.710075 6.979998 6.905699 16.333444 10.707342 26.326687 10.707342 10.377123 0 20.102065-4.053435 27.383388-11.413185l176.955957-178.978547c14.835076-15.012569 14.876353-39.114408 0.094938-53.722458-6.988254-6.905699-16.329316-10.707342-26.32256-10.707342z" fill="#6E6E96" p-id="2303"></path><path d="M954.713921 816.734092c17.419038 17.216779 14.348003 48.843477-6.8314 70.262288l-86.967228 87.96614c-21.183531 21.414684-52.764824 24.853087-70.192117 7.636308-17.419038-17.225034-14.343876-48.847604 6.839655-70.262289l86.9631-87.970267c21.183531-21.427067 52.764824-24.861342 70.18799-7.63218z" fill="#DADAF0" p-id="2304"></path><path d="M925.29556 844.13399c14.649328 14.488346 14.657584 38.449842 0.016511 53.251897l-16.131184 17.526358c-14.641073 14.814437-38.602569 15.066229-53.247769 0.590266-14.649328-14.484219-14.657584-38.445715-0.024767-53.247769l16.13944-17.526358c14.628689-14.818565 38.598441-15.078612 53.247769-0.594394z" fill="#F0F0F0" p-id="2305"></path><path d="M819.002282 1010.077153c-15.454236 0-29.620619-5.588952-39.886294-15.734922-11.854852-11.722765-17.641935-28.815711-15.883521-46.899314 1.659349-17.080563 9.683664-33.669926 22.591088-46.713566l86.958973-87.970267c14.77316-14.938269 34.322108-23.503318 53.639904-23.503318 15.458364 0 29.628875 5.588952 39.898677 15.743178 11.850724 11.714509 17.637807 28.807456 15.88352 46.895186-1.659349 17.076436-9.679536 33.665799-22.582833 46.717694l-86.967228 87.966139c-14.777288 14.934142-34.330364 23.49919-53.652286 23.49919z m107.424277-187.80777c-10.40189 0-21.674731 5.122518-30.161352 13.699949l-86.958973 87.970268c-7.479454 7.557881-12.292392 17.28695-13.204621 26.694056-0.80078 8.271979 1.411685 15.450108 6.232879 20.221769 5.184434 5.11839 11.929151 6.195729 16.671917 6.195728 10.406017 0 21.687115-5.122518 30.173736-13.699949l86.9631-87.96614c7.475326-7.557881 12.284136-17.28695 13.196366-26.698183 0.804908-8.267851-1.407557-15.450108-6.228751-20.213514-5.192689-5.126646-11.937407-6.203984-16.684301-6.203984z" fill="#6E6E96" p-id="2306"></path><path d="M638.616177 841.855481c-21.208297-20.964761-21.224808-55.641855-0.037149-77.060666l142.881513-144.524352c-1.461218 1.201171-2.889414 2.493151-4.255694 3.871815l-176.968341 178.982675c-21.183531 21.418812-21.162892 56.100033 0.041278 77.060666 21.20417 20.956506 55.881263 20.58501 77.056538-0.83793l34.078572-34.462451c-21.340385 17.50572-52.962955 16.581108-72.796717-3.029757zM818.160224 949.498529c-14.100339-13.939358-14.11685-37.013391-0.024767-51.249946l95.024565-96.122542c-0.986528 0.796653-1.927652 1.651094-2.839881 2.571578l-117.69408 119.039722c-14.079701 14.24481-14.075573 37.314716 0.024767 51.249945 14.096212 13.939358 37.166117 13.691694 51.24169-0.561372l22.673643-22.921307c-14.187022 11.652593-35.217827 11.033433-48.405937-2.006078z" fill="#6E6E96" opacity=".15" p-id="2307"></path><path d="M732.05982 831.342142s50.015753 25.39382 76.396101 76.404357l-27.424665 30.962133s-26.483541-69.861898-73.02787-76.685043l24.056434-30.681447z" fill="#6E6E96" opacity=".15" p-id="2308"></path></svg>