<?xml version="1.0" standalone="no"?><!DOCTYPE svg PUBLIC "-//W3C//DTD SVG 1.1//EN" "http://www.w3.org/Graphics/SVG/1.1/DTD/svg11.dtd"><svg t="1641976744665" class="icon" viewBox="0 0 1024 1024" version="1.1" xmlns="http://www.w3.org/2000/svg" p-id="8642" xmlns:xlink="http://www.w3.org/1999/xlink" width="200" height="200"><defs><style type="text/css"></style></defs><path d="M861.8 746.3H160.1V247.8h701.7v498.5z m-670.2-31.4h638.9V279.3H191.6v435.6zM243 817.3h536v31.4H243v-31.4z" p-id="8643"></path><path d="M377.1 380.6h334.8V412H377.1v-31.4zM377.1 482.2h334.8v31.4H377.1v-31.4zM377.1 584.8h334.8v31.4H377.1v-31.4zM310.1 380.6h33.6V412h-33.6v-31.4zM310.1 482.2h33.6v31.4h-33.6v-31.4zM310.1 584.8h33.6v31.4h-33.6v-31.4z" p-id="8644"></path><path d="M511 371.4l-105.3 49.5s-11.1 72.4 0 106.1C419 567.8 511 652.2 511 652.2s92.3-84 105.3-125.1c10.9-34.5 0-106.4 0-106.4L511 371.4z" fill="#FFFFFF" p-id="8645"></path><path d="M511 673.4l-10.6-9.7c-9.7-8.9-95.5-88.5-109.6-131.8-11.9-36.2-1.8-105.6-0.6-113.3l1.3-8.3L511 354l119.6 56 1.3 8.3c1.2 7.7 11.1 76.7-0.5 113.5-13.9 44-100 123.1-109.7 132l-10.7 9.6z m-91-241.9c-2.9 23.6-6.6 68.8 0.5 90.6 8.7 26.6 61.2 80.5 90.5 108.6 29.4-28 81.8-81.7 90.4-108.4 7-22.3 3.5-67.5 0.5-91L511 388.8l-91 42.7z" fill="#FFFFFF" p-id="8646"></path><path d="M511 659.3l-10.6-9.7c-8.9-8.2-87.5-81.2-100.5-121.1-10.9-33.5-1.7-97.1-0.6-104.2l1.3-8.3L511 364.1l110.5 51.7 1.3 8.3c1 7.1 10.2 70.4-0.5 104.3-12.9 40.4-91.7 113.1-100.6 121.3l-10.7 9.6z m-81.7-222c-2.6 21.6-5.9 62 0.5 81.6 7.1 21.7 49.9 67.6 81.4 97.7 31.4-29.9 74.2-75.7 81.3-97.6 6.3-19.9 3.2-60.3 0.5-81.8l-82-38.3-81.7 38.4z" fill="#0000FF" p-id="8647"></path><path d="M495.2 432.1h31.4v79.6h-31.4v-79.6zM532.3 545.8c0 11.7-9.5 21.3-21.3 21.3-11.7 0-21.3-9.5-21.3-21.3 0-11.7 9.5-21.3 21.3-21.3s21.3 9.5 21.3 21.3" fill="#0000FF" p-id="8648"></path></svg>