<?xml version="1.0" standalone="no"?><!DOCTYPE svg PUBLIC "-//W3C//DTD SVG 1.1//EN" "http://www.w3.org/Graphics/SVG/1.1/DTD/svg11.dtd"><svg t="1641984220242" class="icon" viewBox="0 0 1024 1024" version="1.1" xmlns="http://www.w3.org/2000/svg" p-id="21554" xmlns:xlink="http://www.w3.org/1999/xlink" width="200" height="200"><defs><style type="text/css"></style></defs><path d="M724.848405 608.07964a94.115692 94.115692 0 0 1-7.964336 6.223559c-1.240161 0.932965-2.514455 1.82042-3.765993 2.73063C532.065973 745.020702 513.645602 894.431637 512.075491 934.116784c0-0.409594 0-0.750923-0.079644-1.137762-10.854252-161.357439-140.991495-271.925173-187.969698-306.763452a341.328669 341.328669 0 1 1 400.822256-18.13593zM511.995847 944.356644s-0.182042-3.674972 0.079644-10.23986C525.205267 1129.345405 511.995847 944.356644 511.995847 944.356644z" fill="#A25DEF" p-id="21555"></path><path d="M511.995847 0.013994a341.260403 341.260403 0 0 1 212.852558 608.065646 94.115692 94.115692 0 0 1-7.964336 6.223559c-1.240161 0.932965-2.514455 1.82042-3.765993 2.73063a629.535219 629.535219 0 0 0-33.984957 25.804447L274.021499 96.723784A340.122641 340.122641 0 0 1 511.995847 0.013994z" fill="#FFFFFF" opacity=".2" p-id="21556"></path><path d="M503.883602 113.790217c20.19528 7.384077 79.347538 56.660559 77.14028 67.298636 2.434811 5.392993-65.375818 63.612286-72.464077 62.497279-12.640538-6.644531-69.57416-50.061538-72.464076-62.497279a26.953587 26.953587 0 0 1 0-12.014769A638.580428 638.580428 0 0 1 503.883602 113.790217z m2.332413 33.655007a381.571319 381.571319 0 0 0-32.722042 28.842273v2.355167c15.223259 12.196811 25.645161 22.516314 35.065832 28.842273 10.968028-11.616552 29.33151-23.039685 32.722042-31.242951a133.618796 133.618796 0 0 0-35.054454-28.796762z m107.529908 48.070454a19.194049 19.194049 0 0 1 9.352406 0c16.497552 14.324426 66.75251 49.515412 70.131664 60.085223v60.085224c0 48.002188 3.026448 102.637531-2.343791 146.61204-19.831196 15.393923-39.537237 33.552608-65.455461 52.883189-2.389301-1.934196-12.333343 1.547357-16.361021 0l-2.34379-7.213413c-6.394224-10.524301-2.332413-39.980965-2.332412-55.283866V313.285446c-11.571042-8.282909-64.511118-49.81123-58.435468-57.684545a131.081586 131.081586 0 0 1 9.352405-12.014769c18.545524-15.257391 36.772475-29.889014 58.446846-48.070454z m-217.403606 0a14.790909 14.790909 0 0 1 9.352405 2.400678c22.140853 16.884391 76.230069 55.352132 70.131664 64.852447-13.004622 12.253699-25.667916 25.1673-39.742035 36.055686-4.653448 3.606706-17.146077 13.812433-18.704811 14.426825v194.728005a8.760769 8.760769 0 0 0-2.332412 4.801357 38.865958 38.865958 0 0 1-14.028609 4.801356 511.993003 511.993003 0 0 1-67.787873-57.684545c-5.688811-9.204496-2.34379-39.161776-2.34379-52.883188 0-33.837049-1.547357-136.247027 2.34379-156.237509z m7.008615 33.655007a393.051339 393.051339 0 0 0-35.065832 28.842272c0.785056 0 1.558734 2.400678 2.34379 2.400679a401.75522 401.75522 0 0 0 32.722042 28.842272 368.987668 368.987668 0 0 0 35.065832-31.242951 606.256603 606.256603 0 0 0-35.043077-28.85365z m215.037061 0a278.569704 278.569704 0 0 0-32.722042 28.842272c0.785056 0 3.902524 7.213413 4.676203 7.213413 15.234636 12.230944 27.806909 24.291224 30.389629 21.617482a291.65397 291.65397 0 0 0 32.722042-28.842272 218.086264 218.086264 0 0 0-35.020321-28.842273z m-112.206111 45.669776a14.790909 14.790909 0 0 1 9.352406 2.400678c20.923447 16.74786 63.999125 47.729125 67.787873 57.684545v204.330719c-21.287531 14.369937-41.39179 32.995105-65.455461 50.471132a17.851489 17.851489 0 0 1-16.361021 0c-21.037224-17.623937-42.097202-32.847196-63.11167-50.471132V337.326362a12.515385 12.515385 0 0 0 2.332412-7.213412z m-147.226432 16.816125v153.825454a231.045376 231.045376 0 0 0 28.045839 21.617482V313.285446a276.009739 276.009739 0 0 1-28.045839-21.62886z m303.896291 0c-5.688811 5.904986-24.530154 18.010776-28.045839 21.617483v153.825453H637.149692c6.963105-7.122392 20.775538-16.156224 25.713427-21.617482v-36.055685l-0.022756-117.769769zM510.858085 310.884768a294.771438 294.771438 0 0 0-35.065832 28.842273c0.785056 0 3.891147 4.801357 4.676203 4.801356 14.256161 10.797364 24.848727 19.56951 30.389629 24.040916a463.865661 463.865661 0 0 0 35.065832-28.842272v-2.400679c-7.145147-3.948035-15.041217-13.801056-35.065832-26.441594z m-44.372727 57.684545v153.825453l30.389629 24.029539V392.610229c-8.999699-6.07565-15.041217-13.44835-30.389629-24.040916z m81.816482 4.812734c-6.109783 4.243853-15.348412 12.617783-23.381014 19.228182v151.424775h4.676203c8.442196-6.826573 19.341958-15.484944 25.713426-21.617482V368.569313c-1.217406 0.750923-3.629462 2.707874-7.008615 4.812734z" fill="#FFFFFF" p-id="21557"></path></svg>