<?xml version="1.0" standalone="no"?><!DOCTYPE svg PUBLIC "-//W3C//DTD SVG 1.1//EN" "http://www.w3.org/Graphics/SVG/1.1/DTD/svg11.dtd"><svg t="1641976696237" class="icon" viewBox="0 0 1024 1024" version="1.1" xmlns="http://www.w3.org/2000/svg" p-id="7107" xmlns:xlink="http://www.w3.org/1999/xlink" width="200" height="200"><defs><style type="text/css"></style></defs><path d="M347.08 800.14c-17.05 0-33.88-7.88-44.61-22.69-17.67-24.55-12.17-58.87 12.2-76.62 0.69-0.51 1.37-0.97 2.05-1.39l120.15-84.13c2.28-1.6 2.8-3.77 2.82-5.31 0.03-1.54-0.41-3.73-2.64-5.4l-26.19-19.7a6.647 6.647 0 0 0-5.8-1.07L262.6 624.56c-28.56 8.18-58.44-8.19-67.01-36.54-0.17-0.53-0.33-1.07-0.47-1.62-7.85-29.07 9.33-59.43 38.3-67.67l177.9-50.89a26.21 26.21 0 0 1 6.3-2.62c3.63-0.98 7.4-1.15 11.06-0.55a24.957 24.957 0 0 1 14.78 6.59l51.1 29.48c2.21 1.28 5 1.16 7.09-0.3 2.1-1.46 2.69-3.44 2.81-4.85 0.13-1.4-0.1-3.46-1.91-5.27l-77.46-77.52-0.16-0.16c-21.22-21.61-20.91-56.44 0.68-77.64 10.34-10.15 24-15.73 38.48-15.73 14.48 0 28.15 5.58 38.48 15.73 0.06 0.05 0.11 0.11 0.17 0.16L603.58 436a6.646 6.646 0 0 0 5.55 1.88l42.35-5.65a6.61 6.61 0 0 0 5.13-3.76l70.81-151.9c6.17-13.28 17.17-23.37 30.97-28.39 13.76-5.01 28.66-4.37 41.95 1.8 13.31 6.18 23.4 17.19 28.42 30.99 5.01 13.77 4.36 28.66-1.81 41.95l-94.31 202.25c-0.02 0.04-0.04 0.08-0.05 0.11-2.36 4.99-5.38 9.54-9.03 13.57a24.92 24.92 0 0 1-6.03 6.36L571.88 652.74c0.01 0-0.22 0.2-0.66 0.7-2.8 3.14-5.98 5.99-9.45 8.46-0.05 0.04-0.1 0.07-0.15 0.11L378.96 789.92c-9.64 6.9-20.81 10.22-31.88 10.22z m-3.3-58.63c-1.95 1.69-2.31 4.53-0.77 6.67 1.59 2.19 4.64 2.68 6.89 1.05 0.09-0.06 0.18-0.13 0.26-0.19l182.67-127.93c0.39-0.28 0.75-0.6 1.03-0.92 2.7-3.03 5.41-5.54 8.3-7.68l141.67-104.6c0.67-0.75 1.38-1.46 2.15-2.14 0.58-0.51 1.03-1.11 1.37-1.83l94.26-202.14c0.7-1.51 0.47-2.88 0.15-3.76-0.31-0.86-1-2.04-2.5-2.73-1.54-0.72-2.92-0.48-3.79-0.17-0.86 0.31-2.04 1-2.73 2.5l-70.82 151.93c-8.2 17.6-24.59 29.64-43.83 32.2l-42.34 5.65c-17.37 2.31-35.13-3.7-47.52-16.09L467.5 370.6c-1.91-1.82-4.97-1.81-6.86 0.05-1.9 1.87-1.93 4.94-0.07 6.89l77.35 77.41c11.88 11.88 17.83 28.3 16.35 45.04-1.49 16.74-10.25 31.84-24.04 41.45-17.93 12.49-41.73 13.5-60.66 2.58l-47.34-27.31-175.09 50.09c-2.75 0.78-4.4 3.56-3.81 6.29 0.05 0.17 0.1 0.35 0.14 0.52a4.366 4.366 0 0 0 5.37 2.87l142.47-40.73c16.96-4.85 35.5-1.41 49.6 9.19l26.19 19.7c14.44 10.86 22.88 28.14 22.57 46.21s-9.33 35.05-24.14 45.42l-120.98 84.71c-0.24 0.18-0.5 0.36-0.77 0.53z m-2.24 1.28c-0.01 0.01-0.03 0.01-0.04 0.02 0.01 0 0.02-0.01 0.04-0.02z m2.83-1.74s0 0.01 0 0c0 0.01 0 0 0 0zM194.82 585c0 0.01 0 0.02 0.01 0.04-0.01-0.02-0.01-0.03-0.01-0.04z m49.03-9.81c0 0.01 0 0.02 0.01 0.03-0.01-0.01-0.01-0.02-0.01-0.03z m272.09-54.27zM401.5 477.75c-0.06 0.11-0.12 0.21-0.18 0.32 0.06-0.11 0.12-0.21 0.18-0.32z" fill="#d4237a" p-id="7108"></path><path d="M609.89 383.76c-42.89 0-77.79-35.45-77.79-79.03s34.89-79.03 77.79-79.03c42.89 0 77.78 35.45 77.78 79.03 0.01 43.58-34.89 79.03-77.78 79.03z m0-108.06c-15.32 0-27.79 13.02-27.79 29.03s12.46 29.03 27.79 29.03c15.32 0 27.78-13.02 27.78-29.03 0.01-16.01-12.46-29.03-27.78-29.03zM555.95 810.93h-0.2l-111.25-0.87c-13.81-0.11-24.91-11.39-24.8-25.19 0.11-13.74 11.28-24.8 24.99-24.8h0.2l111.25 0.87c13.81 0.11 24.91 11.39 24.8 25.19-0.11 13.73-11.28 24.8-24.99 24.8z" fill="#d4237a" p-id="7109"></path></svg>